<svg width="19" height="19" viewBox="0 0 19 19" fill="none" xmlns="http://www.w3.org/2000/svg">
<path fill-rule="evenodd" clip-rule="evenodd" d="M11.3135 14.1067C14.9033 14.1067 17.8135 11.1965 17.8135 7.60669C17.8135 4.01684 14.9033 1.10669 11.3135 1.10669C7.72363 1.10669 4.81348 4.01684 4.81348 7.60669C4.81348 11.1965 7.72363 14.1067 11.3135 14.1067ZM11.3135 15.1067C15.4556 15.1067 18.8135 11.7488 18.8135 7.60669C18.8135 3.46455 15.4556 0.106689 11.3135 0.106689C7.17134 0.106689 3.81348 3.46455 3.81348 7.60669C3.81348 11.7488 7.17134 15.1067 11.3135 15.1067Z" fill="#ECEAE2"/>
<path fill-rule="evenodd" clip-rule="evenodd" d="M0.000220895 18.2133L6.36418 11.8493L7.07129 12.5564L0.707328 18.9204L0.000220895 18.2133Z" fill="#ECEAE2"/>
</svg>
